/* XPM */
static char *result[] = {
/* columns rows colors chars-per-pixel */
"80 80 2 1 ",
"  c #2B1A12",
". c None",
/* pixels */
"............                                                        ............",
"............                                                        ............",
"............                                                        ............",
"............                                                        ............",
"........                                                                ........",
"........                                                                ........",
"........                                                                ........",
"........                                                                ........",
"........                                                                ........",
"........                                                                ........",
"........                                                                ........",
"........                                                                ........",
"........                                                                ........",
"........                                                                ........",
"........                                                                ........",
"........                                                                ........",
"........                                                                ........",
"........                                                                ........",
"........                                                                ........",
"........                                                                ........",
"........                                                                ........",
"........                                                                ........",
"........                                                                ........",
"........                                                                ........",
"........                                                                ........",
"........                                                                ........",
"........                                                                ........",
"........                                                                ........",
"............                                                        ............",
"............                                                        ............",
"............                                                        ............",
"............                                                        ............",
"........        ................................................        ........",
"........        ................................................        ........",
"........        ................................................        ........",
"........        ................................................        ........",
"........    ....                                                ....    ........",
"........    ....                                                ....    ........",
"........    ....                                                ....    ........",
"........    ....                                                ....    ........",
"........    ....                                                ....    ........",
"........    ....                                                ....    ........",
"........    ....                                                ....    ........",
"........    ....                                                ....    ........",
"........    ........                                        ........    ........",
"........    ........                                        ........    ........",
"........    ........                                        ........    ........",
"........    ........                                        ........    ........",
"........            ........................................            ........",
"........            ........................................            ........",
"........            ........................................            ........",
"........            ........................................            ........",
"........    ........                                        ........    ........",
"........    ........                                        ........    ........",
"........    ........                                        ........    ........",
"........    ........                                        ........    ........",
"........    ........................        ........................    ........",
"........    ........................        ........................    ........",
"........    ........................        ........................    ........",
"........    ........................        ........................    ........",
"........        ................................                        ........",
"........        ................................                        ........",
"........        ................................                        ........",
"........        ................................                        ........",
"........                        ................................        ........",
"........                        ................................        ........",
"........                        ................................        ........",
"........                        ................................        ........",
"........    ........................................................    ........",
"........    ........................................................    ........",
"........    ........................................................    ........",
"........    ........................................................    ........",
"........                                                                ........",
"........                                                                ........",
"........                                                                ........",
"........                                                                ........",
"................................................................................",
"................................................................................",
"................................................................................",
"................................................................................"
};
