/* XPM */
static char *result[] = {
/* columns rows colors chars-per-pixel */
"80 80 7 1 ",
"  c #2B1A11",
". c #2B1912",
"X c #2B1A12",
"o c #2B1A13",
"O c #2C1913",
"+ c #2C1A12",
"@ c None",
/* pixels */
"XXXXXXXXXXXXXXXXXXXXXXXXXXXXXXXXXXXXXXXXXXXXXXXXXXXXXXXXXXXXXXXXXXXXXXXXXXXXXXXX",
"XXXXXXXXXXXXXXXXXXXXXXXXXXXXXXXXXXXXXXXXXXXXXXXXXXXXXXXXXXXXXXXXXXXXXXXXXXXXXXXX",
"XXXXXXXXXXXXXXXXXXXXXXXXXXXXXXXXXXXXXXXXXXXXXXXXXXXXXXXXXXXXXXXXXXXXXXXXXXXXXXXX",
"XXX X.XXXXXXXXXXXXXXXXXXXXXXXXXXXXXXXX.X XX X.XXXXXXXXXXXXXXXXXXXXXXXXXXXX.X XXX",
"XXXXX@@@@@@@@@@@@@@@@@@@@@@@@@@@@@@@@@@XXXXXX@@@@@@@@@@@@@@@@@@@@@@@@@@@@@@XXXXX",
"XXX.@@@@@@@@@@@@@@@@@@@@@@@@@@@@@@@@@@@@.XX.@@@@@@@@@@@@@@@@@@@@@@@@@@@@@@@@.XXX",
"XXXX@@@@@@@@@@@@@@@@@@@@@@@@@@@@@@@@@@@@XXXX@@@@@@@@@@@@@@@@@@@@@@@@@@@@@@@@XXXX",
"XXXX@@@@@@@@@@@@@@@@@@@@@@@@@@@@@@@@@@@@XXXX@@@@@@@@@@@@@@@@@@@@@@@@@@@@@@@@XXXX",
"XXXX@@@@@@@@@@@@@@@@@@@@@@@@@@@@@@@@@@@@XXXX@@@@@@@@@@@@@@@@@@@@@@@@@@@@@@@@XXXX",
"XXXX@@@@@@@@@@@@@@@@@@@@@@@@@@@@@@@@@@@@XXXX@@@@@@@@@@@@@@@@@@@@@@@@@@@@@@@@XXXX",
"XXX.@@@@@@@@@@@@@@@@@@@@@@@@@@@@@@@@@@@@.XXX@@@@@@@@@@@@@@@@@@@@@@@@@@@@@@@@XXXX",
"XXXXX@@@@@@@@@@@@@@@@@@@@@@@@@@@@@@@@@@XXXXX@@@@@@@@@@@@@@@@@@@@@@@@@@@@@@@@XXXX",
"XXX X.XXXXXXXXXXXXXXXXXXXXXXXXXXXXXXXX.X XXX@@@@@@@@@@@@@@@@@@@@@@@@@@@@@@@@XXXX",
"XXXXXXXXXXXXXXXXXXXXXXXXXXXXXXXXXXXXXXXXXXXX@@@@@@@@@@@@@@@@@@@@@@@@@@@@@@@@XXXX",
"XXXXXXXXXXXXXXXXXXXXXXXXXXXXXXXXXXXXXXXXXXX.@@@@@@@@@@@@@@@@@@@@@@@@@@@@@@@@.XXX",
"XXX X.XXXXXXXXXXXXXXXX.X XX X.XXXXXXXX.X XXXX@@@@@@@@@@@@@@@@@@@@@@@@@@@@@@XXXXX",
"XXXXX@@@@@@@@@@@@@@@@@@XXXXXX@@@@@@@@@@XXXX X.XXXXXXXXXXXXXXXXXXXXXXXXXXXX.X XXX",
"XXX.@@@@@@@@@@@@@@@@@@@@.XX.@@@@@@@@@@@@.XXXXXXXXXXXXXXXXXXXXXXXXXXXXXXXXXXXXXXX",
"XXXX@@@@@@@@@@@@@@@@@@@@XXXX@@@@@@@@@@@@+XXXXXXXXXXXXXXXXXXXXXXXXXXXXXXXXXXXXXXX",
"XXXX@@@@@@@@@@@@@@@@@@@@XXXX@@@@@@@@@@@@@+XXXXXXXXXXXX.X XX X.XXXXXXXXXXXX.X XXX",
"XXXX@@@@@@@@@@@@@@@@@@@@XXXX@@@@@@@@@@@@@@@@@@@@@@@@@@@XXXXXX@@@@@@@@@@@@@@XXXXX",
"XXXX@@@@@@@@@@@@@@@@@@@@XXXX@@@@@@@@@@@@@@@@@@@@@@@@@@@@.XX.@@@@@@@@@@@@@@@@.XXX",
"XXXX@@@@@@@@@@@@@@@@@@@@XXXX@@@@@@@@@@@@@@@@@@@@@@@@@@@@XXXX@@@@@@@@@@@@@@@@XXXX",
"XXXX@@@@@@@@@@@@@@@@@@@@XXXX@@@@@@@@@@@@@@@@@@@@@@@@@@@@XXXX@@@@@@@@@@@@@@@@XXXX",
"XXXX@@@@@@@@@@@@@@@@@@@@XXXX@@@@@@@@@@@@@@@@@@@@@@@@@@@@XXXX@@@@@@@@@@@@@@@@XXXX",
"XXXX@@@@@@@@@@@@@@@@@@@@XXXX@@@@@@@@@@@@@@@@@@@@@@@@@@@@XXXX@@@@@@@@@@@@@@@@XXXX",
"XXXX@@@@@@@@@@@@@@@@@@@@XXX.@@@@@@@@@@@@@@@@@@@@@@@@@@@@.XXX@@@@@@@@@@@@@@@@XXXX",
"XXXX@@@@@@@@@@@@@@@@@@@@XXXXX@@@@@@@@@@@@@@@@@@@@@@@@@@XXXXX@@@@@@@@@@@@@@@@XXXX",
"XXXX@@@@@@@@@@@@@@@@@@@@XXX X.XXXXXXXXXXXXXXXXXXXXXXXX.X XXX@@@@@@@@@@@@@@@@XXXX",
"XXXX@@@@@@@@@@@@@@@@@@@@XXXXXXXXXXXXXXXXXXXXXXXXXXXXXXXXXXXX@@@@@@@@@@@@@@@@XXXX",
"XXX.@@@@@@@@@@@@@@@@@@@@.XXXXXXXXXXXXXXXXXXXXXXXXXXXXXXXXXX+@@@@@@@@@@@@@@@@XXXX",
"XXXXX@@@@@@@@@@@@@@@@@@XXXX X.XXXXXXXXXXXXXXXX.X XX X.XXXX+@@@@@@@@@@@@@@@@@XXXX",
"XXX X.XXXXXXXXXXXXXXXX.X XXXX@@@@@@@@@@@@@@@@@@XXXXXX@@@@@@@@@@@@@@@@@@@@@@@XXXX",
"XXXXXXXXXXXXXXXXXXXXXXXXXXX.@@@@@@@@@@@@@@@@@@@@.XX.@@@@@@@@@@@@@@@@@@@@@@@@XXXX",
"XXXXXXXXXXXXXXXXXXXXXXXXXXX+@@@@@@@@@@@@@@@@@@@@XXXX@@@@@@@@@@@@@@@@@@@@@@@@XXXX",
"XXX X.XXXXXXXX.X XX X.XXXX+@@@@@@@@@@@@@@@@@@@@@XXXX@@@@@@@@@@@@@@@@@@@@@@@@XXXX",
"XXXXX@@@@@@@@@@XXXXXX@@@@@@@@@@@@@@@@@@@@@@@@@@@XXXX@@@@@@@@@@@@@@@@@@@@@@@@XXXX",
"XXX.@@@@@@@@@@@@.XX.@@@@@@@@@@@@@@@@@@@@@@@@@@@@XXXX@@@@@@@@@@@@@@@@@@@@@@@@XXXX",
"XXXX@@@@@@@@@@@@XXXX@@@@@@@@@@@@@@@@@@@@@@@@@@@@XXX.@@@@@@@@@@@@@@@@@@@@@@@@XXXX",
"XXXX@@@@@@@@@@@@XXXX@@@@@@@@@@@@@@@@@@@@@@@@@@@@XXXXX@@@@@@@@@@@@@@@@@@@@@@@XXXX",
"XXXX@@@@@@@@@@@@XXXX@@@@@@@@@@@@@@@@@@@@@@@@@@@@XXX X.XXXXXXXX+@@@@@@@@@@@@@XXXX",
"XXXX@@@@@@@@@@@@XXXX@@@@@@@@@@@@@@@@@@@@@@@@@@@@XXXXXXXXXXXXXXX+@@@@@@@@@@@@XXXX",
"XXXX@@@@@@@@@@@@+X+O@@@@@@@@@@@@@@@@@@@@@@@@@@@@.XXXXXXXXXXXXX+O@@@@@@@@@@@@.XXX",
"XXXX@@@@@@@@@@@@@+Oo@@@@@@@@@@@@@@@@@@@@@@@@@@@XXXX X.XXXXXXXXOo@@@@@@@@@@@XXXXX",
"XXXX@@@@@@@@@@@@@@@@oO+@@@@@@@@@@@@@@+XXXXXXXX.X XXXX@@@@@@@@@@@oOXXXXXXXX.X XXX",
"XXXX@@@@@@@@@@@@@@@@O+X+@@@@@@@@@@@@+XXXXXXXXXXXXXX.@@@@@@@@@@@@O+XXXXXXXXXXXXXX",
"XXXX@@@@@@@@@@@@@@@@.XX.@@@@@@@@@@@@.XXXXXXXXXXXXXX+@@@@@@@@@@@@+XXXXXXXXXXXXXXX",
"XXXX@@@@@@@@@@@@@@@XXXXXX@@@@@@@@@@XXXXXXXXXXXX X.+@@@@@@@@@@@@@@+XXXXXXXX.X XXX",
"XXXX@@@@@@@@@+XXXX.X XX X.XXXXXXXX.X XXXXXXXXXXXX@@@@@@@@@@@@@@@@@@@@@@@@@@XXXXX",
"XXXX@@@@@@@@+XXXXXXXXXXXXXXXXXXXXXXXXXXXXXXXXXX.@@@@@@@@@@@@@@@@@@@@@@@@@@@@.XXX",
"XXXX@@@@@@@@.XXXXXXXXXXXXXXXXXXXXXXXXXXXXXXXXXXX@@@@@@@@@@@@@@@@@@@@@@@@@@@@XXXX",
"XXXX@@@@@@@XXXX X.XXXXXXXXXXXXXXXXXXXXXXXX.X XXX@@@@@@@@@@@@@@@@@@@@@@@@@@@@XXXX",
"XXXX@@@@@+.X XXXX@@@@@@@@@@@@@@@@@@@@@@@@@@XXXXX@@@@@@@@@@@@@@@@@@@@@@@@@@@@XXXX",
"XXXX@@@@+XXXXXX.@@@@@@@@@@@@@@@@@@@@@@@@@@@@.XXX@@@@@@@@@@@@@@@@@@@@@@@@@@@@XXXX",
"XXX.@@@@O+XXXXXX@@@@@@@@@@@@@@@@@@@@@@@@@@@@XXX.@@@@@@@@@@@@@@@@@@@@@@@@@@@@.XXX",
"XXXXX@@@oO.X XXX@@@@@@@@@@@@@@@@@@@@@@@@@@@@XXXXX@@@@@@@@@@@@@@@@@@@@@@@@@@XXXXX",
"XXX X.Oo@@@XXXXX@@@@@@@@@@@@@@@@@@@@@@@@@@@@XXX X.XXXXXXXXXXXXXXXXXXXXXXXX.X XXX",
"XXXXXX+O@@@@.XXX@@@@@@@@@@@@@@@@@@@@@@@@@@@@XXXXXXXXXXXXXXXXXXXXXXXXXXXXXXXXXXXX",
"XXXXXXX+@@@@XXXX@@@@@@@@@@@@@@@@@@@@@@@@@@@@O+XXXXXXXXXXXXXXXXXXXXXXXXXXXXXXXXXX",
"XXX X.+@@@@@XXXX@@@@@@@@@@@@@@@@@@@@@@@@@@@@oOXXXXXXXXXXXXXXXXXXXXXXXXXXXX.X XXX",
"XXXXX@@@@@@@XXXX@@@@@@@@@@@@@@@@@@@@@@@@@+Oo@@@@@@@@@@@@@@@@@@@@@@@@@@@@@@@XXXXX",
"XXX.@@@@@@@@XXXX@@@@@@@@@@@@@@@@@@@@@@@@+X+O@@@@@@@@@@@@@@@@@@@@@@@@@@@@@@@@.XXX",
"XXXX@@@@@@@@XXX.@@@@@@@@@@@@@@@@@@@@@@@@.XXX@@@@@@@@@@@@@@@@@@@@@@@@@@@@@@@@XXXX",
"XXXX@@@@@@@@XXXXX@@@@@@@@@@@@@@@@@@@@@@XXXXX@@@@@@@@@@@@@@@@@@@@@@@@@@@@@@@@XXXX",
"XXXX@@@@@@@@XXX X.XXXXXXXXXXXXXXXXXXXX.X XXX@@@@@@@@@@@@@@@@@@@@@@@@@@@@@@@@XXXX",
"XXXX@@@@@@@@XXXXXXXXXXXXXXXXXXXXXXXXXXXXXXXX@@@@@@@@@@@@@@@@@@@@@@@@@@@@@@@@XXXX",
"XXXX@@@@@@@@+XXXXXXXXXXXXXXXXXXXXXXXXXXXXXXX@@@@@@@@@@@@@@@@@@@@@@@@@@@@@@@@XXXX",
"XXXX@@@@@@@@@+XXXX.X XX X.XXXXXXXXXXXX.X XXX@@@@@@@@@@@@@@@@@@@@@@@@@@@@@@@@XXXX",
"XXXX@@@@@@@@@@@@@@@XXXXXX@@@@@@@@@@@@@@XXXXX@@@@@@@@@@@@@@@@@@@@@@@@@@@@@@@@XXXX",
"XXXX@@@@@@@@@@@@@@@@.XX.@@@@@@@@@@@@@@@@.XXX@@@@@@@@@@@@@@@@@@@@@@@@@@@@@@@@XXXX",
"XXXX@@@@@@@@@@@@@@@@XXXX@@@@@@@@@@@@@@@@XXXX@@@@@@@@@@@@@@@@@@@@@@@@@@@@@@@@XXXX",
"XXXX@@@@@@@@@@@@@@@@XXXX@@@@@@@@@@@@@@@@XXXX@@@@@@@@@@@@@@@@@@@@@@@@@@@@@@@@XXXX",
"XXXX@@@@@@@@@@@@@@@@XXXX@@@@@@@@@@@@@@@@XXXX@@@@@@@@@@@@@@@@@@@@@@@@@@@@@@@@XXXX",
"XXXX@@@@@@@@@@@@@@@@XXXX@@@@@@@@@@@@@@@@XXXX@@@@@@@@@@@@@@@@@@@@@@@@@@@@@@@@XXXX",
"XXX.@@@@@@@@@@@@@@@@.XX.@@@@@@@@@@@@@@@@.XX.@@@@@@@@@@@@@@@@@@@@@@@@@@@@@@@@.XXX",
"XXXXX@@@@@@@@@@@@@@XXXXXX@@@@@@@@@@@@@@XXXXXX@@@@@@@@@@@@@@@@@@@@@@@@@@@@@@XXXXX",
"XXX X.XXXXXXXXXXXX.X XX X.XXXXXXXXXXXX.X XX X.XXXXXXXXXXXXXXXXXXXXXXXXXXXX.X XXX",
"XXXXXXXXXXXXXXXXXXXXXXXXXXXXXXXXXXXXXXXXXXXXXXXXXXXXXXXXXXXXXXXXXXXXXXXXXXXXXXXX",
"XXXXXXXXXXXXXXXXXXXXXXXXXXXXXXXXXXXXXXXXXXXXXXXXXXXXXXXXXXXXXXXXXXXXXXXXXXXXXXXX",
"XXXXXXXXXXXXXXXXXXXXXXXXXXXXXXXXXXXXXXXXXXXXXXXXXXXXXXXXXXXXXXXXXXXXXXXXXXXXXXXX"
};
